<?xml version="1.0" encoding="iso-8859-1"?>
<!-- Generator: Adobe Illustrator 16.0.0, SVG Export Plug-In . SVG Version: 6.00 Build 0)  -->
<!DOCTYPE svg PUBLIC "-//W3C//DTD SVG 1.1//EN" "http://www.w3.org/Graphics/SVG/1.1/DTD/svg11.dtd">
<svg version="1.1" id="Capa_1" xmlns="http://www.w3.org/2000/svg" xmlns:xlink="http://www.w3.org/1999/xlink" x="0px" y="0px"
	 width="611.993px" height="611.993px" viewBox="0 0 611.993 611.993" style="enable-background:new 0 0 611.993 611.993;"
	 xml:space="preserve">
<g>
	<path d="M587.572,186.877c-16.204-37.755-37.891-70.185-65.253-97.375c-27.189-27.019-59.955-48.706-97.703-64.91
		c-37.87-16.254-77.624-24.428-119.12-24.428c-41.488,0-80.914,8.173-118.784,24.428c-37.748,16.204-70.271,37.812-97.375,64.91
		c-27.104,27.104-48.991,59.499-65.252,97.375C7.888,224.625,0,264.172,0,305.661c0,41.496,7.895,81.371,24.092,119.127
		c32.323,75.346,87.403,130.348,162.621,162.621c37.877,16.247,77.295,24.42,118.784,24.42c11.714,0,22.75-0.664,33.793-2.006
		c0.336,0.336,1.007,0.671,2.006,0.671c1.342,0,3.312-0.442,6.025-1.342c36.263-8.06,71.569-16.797,104.063-34.464
		c32.751-17.804,60.892-39.826,84.319-66.252c23.75-26.776,42.16-57.551,55.88-92.686c13.72-35.136,20.409-71.941,20.409-110.09
		C612,264.172,603.834,224.747,587.572,186.877z M515.303,137.687c-0.336,0-1.021,0.321-2.006,1.342
		c-2.627,1.749-11.836,9.266-27.44,28.44c-7.816,9.608-15.262,20.159-22.422,31.787c-14.255,23.171-28.04,59.906-31.116,96.034
		c-0.6,7.031-1.007,14.055-1.007,20.745c0,10.707,0.671,20.751,2.342,30.116c-18.738,2.678-32.123,4.348-40.154,4.684
		c1.007-23.757,1.671-46.843,1.671-68.929c0-39.818-1.885-76.303-5.689-109.753c-5.896-51.875-13.72-94.691-22.75-128.156
		C425.622,57.714,477.826,90.844,515.303,137.687z M154.254,84.484h0.671l0.671,0.335l15.391,11.714
		c6.446,4.904,16.061,13.72,28.775,26.434c12.713,12.714,24.092,26.098,34.464,40.154c10.372,14.048,19.681,31.48,28.775,52.532
		c8.973,20.773,14.434,41.824,16.062,63.24c0.378,5.018,0.671,10.372,0.671,15.726c0,14.056-1.671,29.782-5.019,46.85
		c-13.385-2.677-34.636-7.838-62.904-17.403c-61.748-20.887-116.778-50.526-165.969-86.996
		C62.24,174.5,101.052,120.29,154.254,84.484z M153.583,527.845c-35.806-24.764-63.911-56.551-84.99-95.698
		c-21.08-39.154-31.452-81.313-31.452-126.486c0-5.689,0.336-15.055,1.342-28.104c49.191,34.464,102.458,61.362,159.608,80.972
		c21.822,7.495,43.501,13.72,65.917,18.409C245.605,426.123,208.799,476.313,153.583,527.845z M326.248,574.352
		c-4.348,0-16.396,0.671-20.744,0.671c-41.489,0-80.979-9.365-118.455-28.104c56.215-54.21,94.027-108.747,113.765-163.292
		c20.745,2.341,38.483,4.012,52.868,4.347C348.663,450.885,339.297,513.119,326.248,574.352z M355.688,351.504
		c-9.701-0.336-24.428-1.671-44.501-3.349c3.683-17.061,5.118-34.464,5.354-51.86c0.1-7.039-0.086-13.713-0.671-20.744
		c-1.756-21.08-6.503-41.439-14.056-61.905c-7.51-20.359-15.805-37.77-24.764-52.532c-9.108-15.019-19.916-29.296-31.787-43.166
		c-23.936-27.961-39.147-41.16-56.215-54.209c37.141-17.732,75.96-26.769,116.442-26.769c9.701,0,17.068,0.335,21.416,0.671
		c20.408,73.612,30.452,156.261,30.452,248.282C357.364,307.338,356.693,329.083,355.688,351.504z M365.396,567.999
		c12.378-62.911,20.744-123.138,25.099-180.688c13.72-0.336,30.781-2.349,51.532-5.689c11.379,37.141,31.116,73.275,59.563,108.411
		C463.435,530.522,417.927,556.285,365.396,567.999z M525.675,460.586c-22.75-29.445-38.483-58.221-47.178-86.325
		c33.793-9.372,65.252-22.086,94.363-37.812C568.17,381.622,552.444,423.11,525.675,460.586z M470.131,337.784
		c-1.007-7.023-1.671-14.056-1.671-21.415c0-5.689,0.457-11.364,1.007-17.396c2.127-23.414,8.759-46.143,19.745-68.265
		c12.442-25.063,29.396-44.787,47.178-62.568l0.335-0.335c22.751,37.141,35.472,78.965,38.148,125.479
		C540.729,313.692,505.93,328.418,470.131,337.784z"/>
</g>
<g>
</g>
<g>
</g>
<g>
</g>
<g>
</g>
<g>
</g>
<g>
</g>
<g>
</g>
<g>
</g>
<g>
</g>
<g>
</g>
<g>
</g>
<g>
</g>
<g>
</g>
<g>
</g>
<g>
</g>
</svg>
